<?xml version="1.0" encoding="UTF-8"?>
<svg xmlns="http://www.w3.org/2000/svg" xmlns:xlink="http://www.w3.org/1999/xlink" viewBox="0 0 26 26" version="1.1" width="26px" height="26px">
<g id="surface1">
<path style=" " d="M 18.03125 1.0625 L 11.5 1.09375 C 11.714844 1.152344 12.207031 1.25 12.5625 1.84375 L 15.78125 7.46875 L 14.03125 8.5 L 19.78125 8.46875 L 22.59375 3.53125 L 20.84375 4.5625 L 19.15625 1.625 C 18.976563 1.25 18.703125 1 18.03125 1.0625 Z M 10.28125 1.28125 C 9.410156 1.226563 8.40625 1.53125 7.65625 2.5625 L 7.59375 2.65625 L 5.1875 6.8125 L 10.1875 9.71875 L 13.34375 4.25 L 12.125 2.15625 C 11.886719 1.761719 11.152344 1.335938 10.28125 1.28125 Z M 23 8.3125 L 18 11.21875 L 21.125 16.65625 L 23.5625 16.65625 C 24.46875 16.636719 26.480469 14.917969 25.4375 12.59375 L 25.40625 12.46875 Z M 1.21875 9.5 L 2.96875 10.53125 L 1.28125 13.4375 C 1.066406 13.773438 0.96875 14.132813 1.34375 14.6875 L 4.65625 20.375 C 4.597656 20.140625 4.445313 19.652344 4.78125 19.0625 L 8.03125 13.4375 L 9.8125 14.46875 L 6.90625 9.5 Z M 16.96875 15.15625 L 14.125 20.125 L 16.9375 25.0625 L 16.96875 23 L 20.34375 23 C 20.738281 23.039063 21.101563 22.953125 21.375 22.34375 L 24.65625 16.65625 C 24.5 16.8125 24.125 17.167969 23.4375 17.1875 L 16.96875 17.1875 Z M 6.46875 17.1875 L 5.25 19.28125 C 4.816406 20.089844 5.300781 22.679688 7.84375 22.9375 L 7.96875 22.96875 L 12.78125 22.96875 L 12.78125 17.1875 Z "/>
</g>
</svg>
